<mxfile host="app.diagrams.net" modified="2023-12-19T16:16:48.436Z" agent="Mozilla/5.0 (Macintosh; Intel Mac OS X 10.15; rv:121.0) Gecko/20100101 Firefox/121.0" etag="JrBtkF5wri9ehWx7PA2D" version="22.1.11" type="device">
  <diagram name="Страница — 1" id="Tn2oH62UYknwNyWnfbwY">
    <mxGraphModel dx="1194" dy="792" grid="1" gridSize="10" guides="1" tooltips="1" connect="1" arrows="1" fold="1" page="1" pageScale="1" pageWidth="827" pageHeight="1169" math="0" shadow="0">
      <root>
        <mxCell id="0" />
        <mxCell id="1" parent="0" />
        <mxCell id="wv1f-wLSwTEBplESnluF-4" value="" style="edgeStyle=orthogonalEdgeStyle;rounded=0;orthogonalLoop=1;jettySize=auto;html=1;" edge="1" parent="1" source="wv1f-wLSwTEBplESnluF-1" target="wv1f-wLSwTEBplESnluF-3">
          <mxGeometry relative="1" as="geometry" />
        </mxCell>
        <mxCell id="wv1f-wLSwTEBplESnluF-1" value="Начало" style="strokeWidth=2;html=1;shape=mxgraph.flowchart.terminator;whiteSpace=wrap;" vertex="1" parent="1">
          <mxGeometry x="230" y="70" width="100" height="60" as="geometry" />
        </mxCell>
        <mxCell id="wv1f-wLSwTEBplESnluF-2" value="Конец" style="strokeWidth=2;html=1;shape=mxgraph.flowchart.terminator;whiteSpace=wrap;" vertex="1" parent="1">
          <mxGeometry x="230" y="750" width="100" height="60" as="geometry" />
        </mxCell>
        <mxCell id="wv1f-wLSwTEBplESnluF-7" value="" style="edgeStyle=orthogonalEdgeStyle;rounded=0;orthogonalLoop=1;jettySize=auto;html=1;" edge="1" parent="1" source="wv1f-wLSwTEBplESnluF-3" target="wv1f-wLSwTEBplESnluF-5">
          <mxGeometry relative="1" as="geometry" />
        </mxCell>
        <mxCell id="wv1f-wLSwTEBplESnluF-3" value="Открытие файла" style="rounded=0;whiteSpace=wrap;html=1;" vertex="1" parent="1">
          <mxGeometry x="175" y="160" width="210" height="40" as="geometry" />
        </mxCell>
        <mxCell id="wv1f-wLSwTEBplESnluF-9" value="" style="edgeStyle=orthogonalEdgeStyle;rounded=0;orthogonalLoop=1;jettySize=auto;html=1;" edge="1" parent="1" source="wv1f-wLSwTEBplESnluF-5" target="wv1f-wLSwTEBplESnluF-8">
          <mxGeometry relative="1" as="geometry" />
        </mxCell>
        <mxCell id="wv1f-wLSwTEBplESnluF-5" value="Открыт ли файл" style="rhombus;whiteSpace=wrap;html=1;rounded=0;" vertex="1" parent="1">
          <mxGeometry x="220" y="240" width="120" height="80" as="geometry" />
        </mxCell>
        <mxCell id="wv1f-wLSwTEBplESnluF-11" value="" style="edgeStyle=orthogonalEdgeStyle;rounded=0;orthogonalLoop=1;jettySize=auto;html=1;" edge="1" parent="1" source="wv1f-wLSwTEBplESnluF-8" target="wv1f-wLSwTEBplESnluF-10">
          <mxGeometry relative="1" as="geometry" />
        </mxCell>
        <mxCell id="wv1f-wLSwTEBplESnluF-8" value="Перевод вывода из консоли в файл" style="whiteSpace=wrap;html=1;rounded=0;" vertex="1" parent="1">
          <mxGeometry x="220" y="350" width="120" height="60" as="geometry" />
        </mxCell>
        <mxCell id="wv1f-wLSwTEBplESnluF-13" value="" style="edgeStyle=orthogonalEdgeStyle;rounded=0;orthogonalLoop=1;jettySize=auto;html=1;" edge="1" parent="1" source="wv1f-wLSwTEBplESnluF-10" target="wv1f-wLSwTEBplESnluF-12">
          <mxGeometry relative="1" as="geometry" />
        </mxCell>
        <mxCell id="wv1f-wLSwTEBplESnluF-10" value="&amp;nbsp;outputAllListTable" style="shape=process;whiteSpace=wrap;html=1;backgroundOutline=1;rounded=0;" vertex="1" parent="1">
          <mxGeometry x="210" y="440" width="140" height="60" as="geometry" />
        </mxCell>
        <mxCell id="wv1f-wLSwTEBplESnluF-15" value="" style="edgeStyle=orthogonalEdgeStyle;rounded=0;orthogonalLoop=1;jettySize=auto;html=1;" edge="1" parent="1" source="wv1f-wLSwTEBplESnluF-12" target="wv1f-wLSwTEBplESnluF-14">
          <mxGeometry relative="1" as="geometry" />
        </mxCell>
        <mxCell id="wv1f-wLSwTEBplESnluF-12" value="Первод вывода обратно в консоль" style="whiteSpace=wrap;html=1;rounded=0;" vertex="1" parent="1">
          <mxGeometry x="220" y="550" width="120" height="60" as="geometry" />
        </mxCell>
        <mxCell id="wv1f-wLSwTEBplESnluF-16" value="" style="edgeStyle=orthogonalEdgeStyle;rounded=0;orthogonalLoop=1;jettySize=auto;html=1;" edge="1" parent="1" source="wv1f-wLSwTEBplESnluF-14" target="wv1f-wLSwTEBplESnluF-2">
          <mxGeometry relative="1" as="geometry" />
        </mxCell>
        <mxCell id="wv1f-wLSwTEBplESnluF-14" value="Закрытие файла" style="whiteSpace=wrap;html=1;rounded=0;" vertex="1" parent="1">
          <mxGeometry x="220" y="640" width="120" height="60" as="geometry" />
        </mxCell>
        <mxCell id="wv1f-wLSwTEBplESnluF-17" style="edgeStyle=orthogonalEdgeStyle;rounded=0;orthogonalLoop=1;jettySize=auto;html=1;exitX=1;exitY=0.5;exitDx=0;exitDy=0;" edge="1" parent="1" source="wv1f-wLSwTEBplESnluF-5">
          <mxGeometry relative="1" as="geometry">
            <mxPoint x="280" y="730" as="targetPoint" />
            <Array as="points">
              <mxPoint x="380" y="280" />
              <mxPoint x="380" y="730" />
            </Array>
          </mxGeometry>
        </mxCell>
        <mxCell id="wv1f-wLSwTEBplESnluF-18" value="Нет" style="text;html=1;align=center;verticalAlign=middle;resizable=0;points=[];autosize=1;strokeColor=none;fillColor=none;" vertex="1" parent="1">
          <mxGeometry x="320" y="248" width="40" height="30" as="geometry" />
        </mxCell>
        <mxCell id="wv1f-wLSwTEBplESnluF-19" value="Да" style="text;html=1;align=center;verticalAlign=middle;resizable=0;points=[];autosize=1;strokeColor=none;fillColor=none;" vertex="1" parent="1">
          <mxGeometry x="280" y="308" width="40" height="30" as="geometry" />
        </mxCell>
      </root>
    </mxGraphModel>
  </diagram>
</mxfile>
